<svg viewBox="0 0 17 17" xmlns="http://www.w3.org/2000/svg">
    <path fill-rule="evenodd" clip-rule="evenodd" d="M16.317 0.740775C16.4328 0.835744 16.5 0.977649 16.5 1.12745V15.1274C16.5 15.3658 16.3318 15.571 16.0981 15.6177L11.0981 16.6177C11.0333 16.6307 10.9667 16.6307 10.9019 16.6177L6 15.6373L1.09806 16.6177C0.95117 16.6471 0.79885 16.6091 0.683006 16.5141C0.567162 16.4191 0.5 16.2772 0.5 16.1274V2.12745C0.5 1.88911 0.66823 1.6839 0.901942 1.63716L5.90194 0.637155C5.96667 0.624209 6.03333 0.624209 6.09806 0.637155L11 1.61754L15.9019 0.637155C16.0488 0.607778 16.2012 0.645805 16.317 0.740775ZM10.5 2.53735L6.5 1.73735V14.7175L10.5 15.5175V2.53735ZM11.5 15.5175L15.5 14.7175V1.73735L11.5 2.53735V15.5175ZM5.5 14.7175V1.73735L1.5 2.53735V15.5175L5.5 14.7175Z" />
</svg>
