<?xml version="1.0" encoding="utf-8"?><!-- Uploaded to: SVG Repo, www.svgrepo.com, Generator: SVG Repo Mixer Tools -->
<svg width="800px" height="800px" viewBox="0 0 24 24" fill="none" xmlns="http://www.w3.org/2000/svg">
<path fill-rule="evenodd" clip-rule="evenodd" d="M13.5 3C13.2239 3 13 3.22386 13 3.5V12C13 12.5523 12.5523 13 12 13C11.4477 13 11 12.5523 11 12V5.5C11 5.22386 10.7761 5 10.5 5C10.2239 5 9.99999 5.22386 9.99999 5.5V13.9677C9.99999 15.0757 8.62655 15.5918 7.8969 14.7579L5.34951 11.8466C5.19167 11.6662 4.95459 11.576 4.71675 11.6057C4.15329 11.6761 3.88804 12.3395 4.24762 12.779L8.93807 18.5118C10.2266 20.0867 12.154 21 14.1888 21C17.3982 21 20 18.3982 20 15.1888V7.5C20 7.22386 19.7761 7 19.5 7C19.2239 7 19 7.22386 19 7.5V12C19 12.5523 18.5523 13 18 13C17.4477 13 17 12.5523 17 12V5.5C17 5.22386 16.7761 5 16.5 5C16.2239 5 16 5.22386 16 5.5V12C16 12.5523 15.5523 13 15 13C14.4477 13 14 12.5523 14 12V3.5C14 3.22386 13.7761 3 13.5 3ZM15.9611 3.05823C15.7525 1.88823 14.73 1 13.5 1C12.27 1 11.2475 1.88823 11.0389 3.05823C10.8653 3.0201 10.685 3 10.5 3C9.11928 3 7.99999 4.11929 7.99999 5.5V11.8386L6.85467 10.5296C6.2595 9.84942 5.36551 9.50903 4.46868 9.62113C2.34401 9.88672 1.34381 12.3883 2.6997 14.0455L7.39016 19.7783C9.05854 21.8174 11.5541 23 14.1888 23C18.5028 23 22 19.5028 22 15.1888V7.5C22 6.11929 20.8807 5 19.5 5C19.315 5 19.1347 5.0201 18.9611 5.05823C18.7525 3.88823 17.73 3 16.5 3C16.315 3 16.1347 3.0201 15.9611 3.05823Z" fill="#0F0F0F"/>
</svg>