<svg width="12" height="15" viewBox="0 0 12 15" xmlns="http://www.w3.org/2000/svg">
    <path fill-rule="evenodd" clip-rule="evenodd" d="M6 3.62745C3.23858 3.62745 1 5.86603 1 8.62745C1 11.3889 3.23858 13.6275 6 13.6275C8.76142 13.6275 11 11.3889 11 8.62745C11 7.88202 10.8372 7.17598 10.5457 6.54179C10.4304 6.29088 10.5403 5.99399 10.7912 5.87866C11.0421 5.76333 11.339 5.87324 11.4543 6.12415C11.8048 6.88668 12 7.73496 12 8.62745C12 11.9412 9.31371 14.6275 6 14.6275C2.68629 14.6275 0 11.9412 0 8.62745C0 5.31375 2.68629 2.62745 6 2.62745V3.62745Z" />
    <path d="M6 5.09369V1.16121C6 0.949255 6.24721 0.833465 6.41005 0.969158L8.76953 2.9354C8.88947 3.03535 8.88947 3.21956 8.76953 3.31951L6.41005 5.28575C6.24721 5.42144 6 5.30565 6 5.09369Z" />
</svg>
