<svg width="12" height="15" viewBox="0 0 12 15" xmlns="http://www.w3.org/2000/svg">
    <path fill-rule="evenodd" clip-rule="evenodd" d="M6 3.62742C8.76142 3.62742 11 5.866 11 8.62742C11 11.3888 8.76142 13.6274 6 13.6274C3.23858 13.6274 1 11.3888 1 8.62742C1 7.88199 1.1628 7.17595 1.45431 6.54176C1.56963 6.29085 1.45973 5.99396 1.20882 5.87863C0.957916 5.7633 0.661024 5.87321 0.545694 6.12412C0.195193 6.88665 0 7.73493 0 8.62742C0 11.9411 2.68629 14.6274 6 14.6274C9.31371 14.6274 12 11.9411 12 8.62742C12 5.31371 9.31371 2.62742 6 2.62742V3.62742Z" />
    <path d="M6 5.09366V1.16118C6 0.949224 5.75279 0.833435 5.58995 0.969128L3.23047 2.93537C3.11053 3.03532 3.11053 3.21953 3.23047 3.31948L5.58995 5.28572C5.75279 5.42141 6 5.30562 6 5.09366Z" />
</svg>
