<?xml version="1.0" encoding="UTF-8"?>
<svg id="Layer_2" data-name="Layer 2" xmlns="http://www.w3.org/2000/svg" width="16" height="12.68" viewBox="0 0 16 12.68">
  <defs>
    <style>
      .cls-1 {
        fill: #3d4347;
        fill-rule: evenodd;
        stroke-width: 0px;
      }
    </style>
  </defs>
  <g id="Layer_1-2" data-name="Layer 1">
    <path class="cls-1" d="M11.55,11.47c-1.67,0-3.09-1.32-3.09-3.09s1.19-3.22,3.12-3.22,3.06,1.56,3.06,3.19c0,1.77-1.2,3.12-3.09,3.12ZM6.61,5.61l-.59-1.94c-.35-1.02-.46-1.61-1.45-2.66-.34-.36-1.63-1.15-1.47-.98,1.63,1.76,2.47,3.9,2.79,4.49-.3-.36-.64-.68-1.04-1.08-.34-.34-.69-.65-1.02-.86-.22-.14-.34-.21-.57-.33-1.01-.52-1.98-.84-2.36-.93-.46-.11-.91-.14-.91-.14,0,0,1.46,1.23,2.08,2.01.62.78,1.26,1.49,1.97,1.77.7.29.95.37,1.5.45.48.07,1.06.18,1.06.18ZM11.68,3.9c-1.54,0-2.37.53-2.95,1.1l-.16.17V0h-1.33v8.46c0,2.6,2,4.22,4.3,4.22,2.53,0,4.45-1.95,4.45-4.46,0-2.33-2-4.33-4.32-4.33Z"/>
  </g>
</svg>