<?xml version="1.0" encoding="UTF-8"?>
<svg id="Layer_2" data-name="Layer 2" xmlns="http://www.w3.org/2000/svg" width="16" height="16" viewBox="0 0 16 16">
  <defs>
    <style>
      .cls-1 {
        fill: #3d4347;
      }

      .cls-1, .cls-2 {
        stroke-width: 0px;
      }

      .cls-2 {
        fill: #dd2714;
      }
    </style>
  </defs>
  <g id="Layer_1-2" data-name="Layer 1">
    <g>
      <g>
        <path class="cls-1" d="M5.89,8.43c-.92,0-1.68.76-1.68,1.68v4.21c0,.92.76,1.68,1.68,1.68s1.68-.76,1.68-1.68v-4.21c0-.92-.76-1.68-1.68-1.68Z"/>
        <path class="cls-1" d="M16,5.89c0-.49-.22-.93-.56-1.24-.53.75-1.4,1.24-2.39,1.24-.14,0-.28-.02-.41-.04,0,.01,0,.03,0,.04v1.68h1.68c.92,0,1.68-.76,1.68-1.68Z"/>
        <path class="cls-1" d="M10.11,7.57c.92,0,1.68-.76,1.68-1.68v-.29c-.99-.47-1.68-1.48-1.68-2.65,0-.99.49-1.86,1.24-2.39-.31-.34-.75-.55-1.24-.55-.92,0-1.68.76-1.68,1.68v4.21c0,.92.76,1.68,1.68,1.68Z"/>
        <path class="cls-1" d="M0,10.11c0,.92.75,1.68,1.68,1.68s1.68-.76,1.68-1.68h0v-1.68h-1.68c-.92,0-1.68.76-1.68,1.68Z"/>
        <path class="cls-1" d="M10.11,12.64h-1.68v1.68c0,.92.76,1.68,1.68,1.68s1.68-.76,1.68-1.68-.76-1.68-1.68-1.68Z"/>
        <path class="cls-1" d="M5.89,4.21H1.68c-.92,0-1.68.76-1.68,1.68s.76,1.68,1.68,1.68h4.21c.92,0,1.68-.76,1.68-1.68s-.76-1.68-1.68-1.68Z"/>
        <path class="cls-1" d="M14.31,8.43h-4.21c-.92,0-1.68.76-1.68,1.68s.76,1.68,1.68,1.68h4.21c.92,0,1.68-.76,1.68-1.68s-.76-1.68-1.68-1.68Z"/>
        <path class="cls-1" d="M5.89,0c-.92,0-1.68.75-1.68,1.68s.76,1.68,1.68,1.68h0s1.68,0,1.68,0v-1.68c0-.92-.76-1.68-1.68-1.68Z"/>
      </g>
      <circle class="cls-2" cx="13.05" cy="2.94" r="1.97"/>
    </g>
  </g>
</svg>