<?xml version="1.0" encoding="UTF-8"?>
<svg id="Layer_2" data-name="Layer 2" xmlns="http://www.w3.org/2000/svg" width="16" height="16" viewBox="0 0 16 16">
  <defs>
    <style>
      .cls-1 {
        fill: #3d4347;
        stroke-width: 0px;
      }
    </style>
  </defs>
  <g id="Layer_1-2" data-name="Layer 1">
    <path class="cls-1" d="M13,1c1.1,0,2,.9,2,2v10c0,1.1-.9,2-2,2H3c-1.1,0-2-.9-2-2V3c0-1.1.9-2,2-2h10M13,0H3C1.34,0,0,1.34,0,3v10c0,1.66,1.34,3,3,3h10c1.66,0,3-1.34,3-3V3c0-1.66-1.34-3-3-3h0Z"/>
  </g>
</svg>