<svg width="26" height="26" viewBox="0 0 26 26" fill="none" xmlns="http://www.w3.org/2000/svg">
<circle cx="13" cy="13" r="12.5" fill="#00875A" fill-opacity="0.25" stroke="#00875A"/>
<path d="M13.5833 9.45312V6H6.8125C6.36224 6 6 6.27168 6 6.60938V18.3906C6 18.7283 6.36224 19 6.8125 19H18.1875C18.6378 19 19 18.7283 19 18.3906V10.0625H14.3958C13.949 10.0625 13.5833 9.78828 13.5833 9.45312ZM15.75 15.4453C15.75 15.6129 15.5672 15.75 15.3438 15.75H9.65625C9.43281 15.75 9.25 15.6129 9.25 15.4453V15.2422C9.25 15.0746 9.43281 14.9375 9.65625 14.9375H15.3438C15.5672 14.9375 15.75 15.0746 15.75 15.2422V15.4453ZM15.75 13.8203C15.75 13.9879 15.5672 14.125 15.3438 14.125H9.65625C9.43281 14.125 9.25 13.9879 9.25 13.8203V13.6172C9.25 13.4496 9.43281 13.3125 9.65625 13.3125H15.3438C15.5672 13.3125 15.75 13.4496 15.75 13.6172V13.8203ZM15.75 11.9922V12.1953C15.75 12.3629 15.5672 12.5 15.3438 12.5H9.65625C9.43281 12.5 9.25 12.3629 9.25 12.1953V11.9922C9.25 11.8246 9.43281 11.6875 9.65625 11.6875H15.3438C15.5672 11.6875 15.75 11.8246 15.75 11.9922ZM19 9.09512V9.25H14.6667V6H14.8732C15.0898 6 15.2964 6.06348 15.4487 6.17773L18.763 8.66602C18.9154 8.78027 19 8.93516 19 9.09512Z" fill="#00875A"/>
</svg>
