<svg width="27" height="26" viewBox="0 0 27 26" fill="none" xmlns="http://www.w3.org/2000/svg">
<circle cx="13.5" cy="13" r="12.5" fill="#00875A" fill-opacity="0.25" stroke="#00875A"/>
<path d="M14.0833 9.45312V6H7.31244C6.86218 6 6.49994 6.27168 6.49994 6.60938V18.3906C6.49994 18.7283 6.86218 19 7.31244 19H18.6874C19.1377 19 19.4999 18.7283 19.4999 18.3906V10.0625H14.8958C14.4489 10.0625 14.0833 9.78828 14.0833 9.45312ZM16.2499 15.4453C16.2499 15.6129 16.0671 15.75 15.8437 15.75H10.1562C9.93275 15.75 9.74994 15.6129 9.74994 15.4453V15.2422C9.74994 15.0746 9.93275 14.9375 10.1562 14.9375H15.8437C16.0671 14.9375 16.2499 15.0746 16.2499 15.2422V15.4453ZM16.2499 13.8203C16.2499 13.9879 16.0671 14.125 15.8437 14.125H10.1562C9.93275 14.125 9.74994 13.9879 9.74994 13.8203V13.6172C9.74994 13.4496 9.93275 13.3125 10.1562 13.3125H15.8437C16.0671 13.3125 16.2499 13.4496 16.2499 13.6172V13.8203ZM16.2499 11.9922V12.1953C16.2499 12.3629 16.0671 12.5 15.8437 12.5H10.1562C9.93275 12.5 9.74994 12.3629 9.74994 12.1953V11.9922C9.74994 11.8246 9.93275 11.6875 10.1562 11.6875H15.8437C16.0671 11.6875 16.2499 11.8246 16.2499 11.9922ZM19.4999 9.09512V9.25H15.1666V6H15.3731C15.5898 6 15.7963 6.06348 15.9486 6.17773L19.263 8.66602C19.4153 8.78027 19.4999 8.93516 19.4999 9.09512Z" fill="#00875A"/>
</svg>
