<svg width="25" height="25" viewBox="0 0 25 25" fill="none" xmlns="http://www.w3.org/2000/svg">
<path d="M12.5 0C6.6594 0 2.08337 1.6475 2.08337 3.75C2.08337 5.85251 6.6594 7.50001 12.5 7.50001C18.3406 7.50001 22.9167 5.85251 22.9167 3.75C22.9167 1.6475 18.3406 0 12.5 0ZM12.5 6.66669C6.97502 6.66669 3.12502 5.12919 3.12502 3.75C3.12502 2.37082 6.97502 0.833321 12.5 0.833321C18.025 0.833321 21.875 2.37082 21.875 3.75C21.875 5.12919 18.025 6.66669 12.5 6.66669Z" fill="#788793"/>
<path d="M22.4122 5.23438C22.1247 5.23438 21.8913 5.42106 21.8913 5.65106C21.8913 7.03024 18.0413 8.56774 12.5163 8.56774C6.99131 8.56774 3.14131 7.03024 3.14131 5.65106C3.14131 5.42106 2.90796 5.23438 2.62046 5.23438C2.33296 5.23438 2.09961 5.42106 2.09961 5.65106C2.09961 7.75356 6.67563 9.40106 12.5163 9.40106C18.3569 9.40106 22.9329 7.75356 22.9329 5.65106C22.933 5.42106 22.6997 5.23438 22.4122 5.23438Z" fill="#788793"/>
<path d="M22.4122 7.30473C22.1247 7.30473 21.8913 7.49141 21.8913 7.72141C21.8913 9.10055 18.0413 10.6381 12.5163 10.6381C6.99131 10.6381 3.14131 9.10055 3.14131 7.72137C3.14131 7.49137 2.90796 7.30469 2.62046 7.30469C2.33296 7.30469 2.09961 7.49137 2.09961 7.72137C2.09961 9.82387 6.67563 11.4714 12.5163 11.4714C18.3569 11.4714 22.9329 9.82387 22.9329 7.72137C22.933 7.49137 22.6997 7.30473 22.4122 7.30473Z" fill="#788793"/>
<path d="M22.3959 3.33331C22.1084 3.33331 21.875 3.51999 21.875 3.74999V16.25C21.875 17.6292 18.025 19.1667 12.5 19.1667C6.97502 19.1667 3.12502 17.6292 3.12502 16.25V3.74999C3.12502 3.51999 2.89167 3.33331 2.60417 3.33331C2.31667 3.33331 2.08337 3.51999 2.08337 3.74999V16.25C2.08337 18.3525 6.6594 20 12.5 20C18.3406 20 22.9167 18.3525 22.9167 16.25V3.74999C22.9167 3.51999 22.6834 3.33331 22.3959 3.33331Z" fill="#788793"/>
</svg>
