<svg width="17" height="17" viewBox="0 0 17 17" xmlns="http://www.w3.org/2000/svg">
    <path d="M4.81781 3.00114C5.73441 2.5845 7.03579 2.31372 8.5 2.31372C9.96421 2.31372 11.2656 2.5845 12.1822 3.00114C13.1439 3.43829 13.5 3.94 13.5 4.31372C13.5 4.68744 13.1439 5.18915 12.1822 5.6263C11.2656 6.04294 9.96421 6.31372 8.5 6.31372C7.03579 6.31372 5.73441 6.04294 4.81781 5.6263C3.85608 5.18915 3.5 4.68744 3.5 4.31372C3.5 3.94 3.85608 3.43829 4.81781 3.00114ZM13.5 6.01185V7.31372C13.5 7.68744 13.1439 8.18915 12.1822 8.6263C11.2656 9.04294 9.96421 9.31372 8.5 9.31372C7.03579 9.31372 5.73441 9.04294 4.81781 8.6263C3.85608 8.18915 3.5 7.68744 3.5 7.31372V6.01185C3.77105 6.21418 4.0799 6.38935 4.40401 6.53667C5.47802 7.02486 6.92664 7.31372 8.5 7.31372C10.0734 7.31372 11.522 7.02486 12.596 6.53667C12.9201 6.38935 13.229 6.21418 13.5 6.01185ZM14.5 4.31372C14.5 3.30673 13.6249 2.55844 12.596 2.09077C11.522 1.60258 10.0734 1.31372 8.5 1.31372C6.92664 1.31372 5.47802 1.60258 4.40401 2.09077C3.37513 2.55844 2.5 3.30673 2.5 4.31372V13.3137C2.5 14.3207 3.37513 15.069 4.40401 15.5367C5.47802 16.0249 6.92664 16.3137 8.5 16.3137C10.0734 16.3137 11.522 16.0249 12.596 15.5367C13.6249 15.069 14.5 14.3207 14.5 13.3137V4.31372ZM13.5 9.01185V10.3137C13.5 10.6874 13.1439 11.1892 12.1822 11.6263C11.2656 12.0429 9.96421 12.3137 8.5 12.3137C7.03579 12.3137 5.73441 12.0429 4.81781 11.6263C3.85608 11.1892 3.5 10.6874 3.5 10.3137V9.01185C3.77105 9.21418 4.0799 9.38935 4.40401 9.53667C5.47802 10.0249 6.92664 10.3137 8.5 10.3137C10.0734 10.3137 11.522 10.0249 12.596 9.53667C12.9201 9.38935 13.229 9.21418 13.5 9.01185ZM13.5 12.0118V13.3137C13.5 13.6874 13.1439 14.1892 12.1822 14.6263C11.2656 15.0429 9.96421 15.3137 8.5 15.3137C7.03579 15.3137 5.73441 15.0429 4.81781 14.6263C3.85608 14.1892 3.5 13.6874 3.5 13.3137V12.0118C3.77105 12.2142 4.0799 12.3893 4.40401 12.5367C5.47802 13.0249 6.92664 13.3137 8.5 13.3137C10.0734 13.3137 11.522 13.0249 12.596 12.5367C12.9201 12.3893 13.229 12.2142 13.5 12.0118Z" />
</svg>
