<svg width="25" height="25" viewBox="0 0 25 25" fill="none" xmlns="http://www.w3.org/2000/svg">
    <path d="M12.5 0C6.6594 0 2.08337 2.05937 2.08337 4.6875C2.08337 7.31563 6.6594 9.375 12.5 9.375C18.3406 9.375 22.9167 7.31563 22.9167 4.6875C22.9167 2.05937 18.3406 0 12.5 0ZM12.5 8.33335C6.97502 8.33335 3.12502 6.41147 3.12502 4.6875C3.12502 2.96353 6.97502 1.04165 12.5 1.04165C18.025 1.04165 21.875 2.96353 21.875 4.6875C21.875 6.41147 18.025 8.33335 12.5 8.33335Z"
          fill="#788793"/>
    <path d="M22.4122 6.54297C22.1247 6.54297 21.8913 6.77632 21.8913 7.06382C21.8913 8.78779 18.0413 10.7097 12.5163 10.7097C6.99131 10.7097 3.14131 8.78779 3.14131 7.06382C3.14131 6.77632 2.90796 6.54297 2.62046 6.54297C2.33296 6.54297 2.09961 6.77632 2.09961 7.06382C2.09961 9.69194 6.67563 11.7513 12.5163 11.7513C18.3569 11.7513 22.9329 9.69194 22.9329 7.06382C22.933 6.77632 22.6997 6.54297 22.4122 6.54297Z"
          fill="#788793"/>
    <path d="M22.4122 9.13091C22.1247 9.13091 21.8913 9.36426 21.8913 9.65176C21.8913 11.3757 18.0413 13.2976 12.5163 13.2976C6.99131 13.2976 3.14131 11.3757 3.14131 9.65171C3.14131 9.36421 2.90796 9.13086 2.62046 9.13086C2.33296 9.13086 2.09961 9.36421 2.09961 9.65171C2.09961 12.2798 6.67563 14.3392 12.5163 14.3392C18.3569 14.3392 22.9329 12.2798 22.9329 9.65171C22.933 9.36421 22.6997 9.13091 22.4122 9.13091Z"
          fill="#788793"/>
    <path d="M22.3959 4.16663C22.1084 4.16663 21.875 4.39998 21.875 4.68748V20.3125C21.875 22.0364 18.025 23.9583 12.5 23.9583C6.97502 23.9583 3.12502 22.0364 3.12502 20.3125V4.68748C3.12502 4.39998 2.89167 4.16663 2.60417 4.16663C2.31667 4.16663 2.08337 4.39998 2.08337 4.68748V20.3125C2.08337 22.9406 6.6594 25 12.5 25C18.3406 25 22.9167 22.9406 22.9167 20.3125V4.68748C22.9167 4.39998 22.6834 4.16663 22.3959 4.16663Z"
          fill="#788793"/>
</svg>
