<svg width="22" height="22" viewBox="0 0 22 22" fill="none" xmlns="http://www.w3.org/2000/svg">
<path d="M11 22C17.0751 22 22 17.0751 22 11C22 4.92487 17.0751 0 11 0C4.92487 0 0 4.92487 0 11C0 17.0751 4.92487 22 11 22Z" fill="#FFF1F2"/>
<path d="M11 21C16.5228 21 21 16.5228 21 11C21 5.47715 16.5228 1 11 1C5.47715 1 1 5.47715 1 11C1 16.5228 5.47715 21 11 21Z" stroke="#ED4757" stroke-width="2"/>
<path d="M12.7384 11.0283C13.8256 8.68512 14.9128 6.3431 16 4C15.1293 8.18062 14.2595 12.3592 13.3888 16.5388C11.969 14.8121 10.5492 13.0843 9.12934 11.3576C7.75324 13.2384 6.3761 15.1192 5 17C6.22818 13.1402 7.45537 9.28045 8.68355 5.42061C10.0348 7.28984 11.3871 9.15906 12.7384 11.0283Z" fill="#ED4757"/>
</svg>
