<svg width="28" height="28" viewBox="0 0 28 28" fill="none" xmlns="http://www.w3.org/2000/svg">
<circle cx="14" cy="14" r="13" fill="#D11401" fill-opacity="0.25" stroke="#D11401" stroke-width="2"/>
<path d="M20.8424 18.0316C21.2911 18.9064 20.7279 20 19.8319 20H8.16799C7.27021 20 6.70968 18.9047 7.15743 18.0316L12.9895 6.65584C13.4383 5.78059 14.5625 5.78218 15.0106 6.65584L20.8424 18.0316ZM14 15.6797C13.3825 15.6797 12.882 16.2428 12.882 16.9375C12.882 17.6322 13.3825 18.1953 14 18.1953C14.6175 18.1953 15.1181 17.6322 15.1181 16.9375C15.1181 16.2428 14.6175 15.6797 14 15.6797ZM12.9385 11.1585L13.1188 14.8773C13.1272 15.0513 13.2551 15.1875 13.41 15.1875H14.59C14.7449 15.1875 14.8728 15.0513 14.8812 14.8773L15.0615 11.1585C15.0706 10.9705 14.9376 10.8125 14.7703 10.8125H13.2297C13.0624 10.8125 12.9294 10.9705 12.9385 11.1585Z" fill="#D11401"/>
</svg>
