<svg width="31" height="31" viewBox="0 0 31 31" xmlns="http://www.w3.org/2000/svg">
    <path d="M14.5841 2.9168C15.121 2.37983 15.9916 2.37983 16.5286 2.9168L28.1959 14.5841C28.7329 15.121 28.7329 15.9916 28.1959 16.5286L16.5286 28.1959C15.9916 28.7328 15.121 28.7328 14.5841 28.1959L2.91682 16.5286C2.37984 15.9916 2.37984 15.121 2.91682 14.5841L14.5841 2.9168ZM1.94454 13.6118C0.870602 14.6857 0.870602 16.4269 1.94454 17.5009L13.6118 29.1681C14.6857 30.2421 16.427 30.2421 17.5009 29.1681L29.1682 17.5009C30.2421 16.4269 30.2421 14.6857 29.1682 13.6118L17.5009 1.94453C16.427 0.870588 14.6857 0.870588 13.6118 1.94453L1.94454 13.6118Z" />
    <path d="M15.5 23C19.6421 23 23 19.6421 23 15.5C23 11.3579 19.6421 8 15.5 8C11.3579 8 8 11.3579 8 15.5C8 19.6421 11.3579 23 15.5 23Z" stroke="black" stroke-width="0.8"/>
    <path d="M15.5513 21.2533C18.7004 21.2533 21.2533 18.7004 21.2533 15.5512C21.2533 12.4021 18.7004 9.84918 15.5513 9.84918C12.4021 9.84918 9.84924 12.4021 9.84924 15.5512C9.84924 18.7004 12.4021 21.2533 15.5513 21.2533Z" stroke="black" stroke-width="0.8"/>
    <path fill-rule="evenodd" clip-rule="evenodd" d="M15.5074 12.2123L19.0081 14.7631L17.6709 18.8904H13.3439L12.0068 14.7631L15.5074 12.2123Z" stroke="black" stroke-width="0.6"/>
</svg>
