<svg width="29" height="29" viewBox="0 0 29 29" xmlns="http://www.w3.org/2000/svg">
<path d="M13.5841 1.9168C14.121 1.37983 14.9916 1.37983 15.5286 1.9168L27.1959 13.5841C27.7329 14.121 27.7329 14.9916 27.1959 15.5286L15.5286 27.1959C14.9916 27.7328 14.121 27.7328 13.5841 27.1959L1.91682 15.5286C1.37984 14.9916 1.37984 14.121 1.91682 13.5841L13.5841 1.9168ZM0.944544 12.6118C-0.129398 13.6857 -0.129398 15.4269 0.944544 16.5009L12.6118 28.1681C13.6857 29.2421 15.427 29.2421 16.5009 28.1681L28.1682 16.5009C29.2421 15.4269 29.2421 13.6857 28.1682 12.6118L16.5009 0.94453C15.427 -0.129412 13.6857 -0.129412 12.6118 0.94453L0.944544 12.6118Z" />
<path d="M17.3432 14.5L21.6075 10.3956C22.1308 9.89189 22.1308 9.07527 21.6075 8.57119L20.6598 7.659C20.1365 7.15533 19.2881 7.15533 18.7643 7.659L14.5 11.7634L10.2357 7.659C9.71236 7.15533 8.86392 7.15533 8.3402 7.659L7.39247 8.57119C6.86918 9.07486 6.86918 9.89148 7.39247 10.3956L11.6568 14.5L7.39247 18.6044C6.86918 19.1081 6.86918 19.9247 7.39247 20.4288L8.3402 21.341C8.86349 21.8447 9.71236 21.8447 10.2357 21.341L14.5 17.2366L18.7643 21.341C19.2876 21.8447 20.1365 21.8447 20.6598 21.341L21.6075 20.4288C22.1308 19.9251 22.1308 19.1085 21.6075 18.6044L17.3432 14.5Z" />
</svg>
