<svg width="31" height="31" viewBox="0 0 31 31" fill="none" xmlns="http://www.w3.org/2000/svg">
<path d="M14.5841 2.91686C15.121 2.37989 15.9916 2.37989 16.5286 2.91686L28.1959 14.5841C28.7329 15.1211 28.7329 15.9917 28.1959 16.5287L16.5286 28.1959C15.9916 28.7329 15.121 28.7329 14.5841 28.1959L2.91682 16.5287C2.37984 15.9917 2.37984 15.1211 2.91682 14.5841L14.5841 2.91686ZM1.94454 13.6119C0.870602 14.6858 0.870602 16.427 1.94454 17.5009L13.6118 29.1682C14.6857 30.2421 16.427 30.2421 17.5009 29.1682L29.1682 17.5009C30.2421 16.427 30.2421 14.6858 29.1682 13.6119L17.5009 1.94459C16.427 0.870649 14.6857 0.870649 13.6118 1.94459L1.94454 13.6119Z" fill="#333344"/>
<path d="M18.3432 15.5L22.6075 11.3956C23.1308 10.8919 23.1308 10.0753 22.6075 9.57119L21.6598 8.659C21.1365 8.15533 20.2881 8.15533 19.7643 8.659L15.5 12.7634L11.2357 8.659C10.7124 8.15533 9.86392 8.15533 9.3402 8.659L8.39247 9.57119C7.86918 10.0749 7.86918 10.8915 8.39247 11.3956L12.6568 15.5L8.39247 19.6044C7.86918 20.1081 7.86918 20.9247 8.39247 21.4288L9.3402 22.341C9.86349 22.8447 10.7124 22.8447 11.2357 22.341L15.5 18.2366L19.7643 22.341C20.2876 22.8447 21.1365 22.8447 21.6598 22.341L22.6075 21.4288C23.1308 20.9251 23.1308 20.1085 22.6075 19.6044L18.3432 15.5Z" fill="#212529"/>
</svg>
