<svg width="31" height="31" viewBox="0 0 31 31" fill="none" xmlns="http://www.w3.org/2000/svg">
<path d="M14.5841 2.91686C15.121 2.37989 15.9916 2.37989 16.5286 2.91686L28.1959 14.5841C28.7329 15.1211 28.7329 15.9917 28.1959 16.5287L16.5286 28.1959C15.9916 28.7329 15.121 28.7329 14.5841 28.1959L2.91682 16.5287C2.37984 15.9917 2.37984 15.1211 2.91682 14.5841L14.5841 2.91686ZM1.94454 13.6119C0.870602 14.6858 0.870602 16.427 1.94454 17.5009L13.6118 29.1682C14.6857 30.2421 16.427 30.2421 17.5009 29.1682L29.1682 17.5009C30.2421 16.427 30.2421 14.6858 29.1682 13.6119L17.5009 1.94459C16.427 0.870649 14.6857 0.870649 13.6118 1.94459L1.94454 13.6119Z" fill="#333344"/>
<circle cx="15.5" cy="15.5" r="8" stroke="black"/>
</svg>
