<svg width="26" height="26" viewBox="0 0 26 26" fill="none" xmlns="http://www.w3.org/2000/svg">
<circle cx="13" cy="13" r="12.5" fill="#FFAB00" fill-opacity="0.25" stroke="#FFAB00"/>
<circle cx="12.9997" cy="12.9999" r="8.26471" fill="#FFAB00" fill-opacity="0.25" stroke="#FFAB00"/>
<path d="M11.125 12.0625H14.875C15.0822 12.0625 15.25 11.8946 15.25 11.6875V11.3125C15.25 11.1053 15.0822 10.9375 14.875 10.9375H11.125C10.9178 10.9375 10.75 11.1053 10.75 11.3125V11.6875C10.75 11.8946 10.9178 12.0625 11.125 12.0625ZM10.75 13.9375C10.75 14.1446 10.9178 14.3125 11.125 14.3125H14.875C15.0822 14.3125 15.25 14.1446 15.25 13.9375V13.5625C15.25 13.3553 15.0822 13.1875 14.875 13.1875H11.125C10.9178 13.1875 10.75 13.3553 10.75 13.5625V13.9375ZM13 16.7764C12.6152 16.7764 12.2303 16.6578 11.9017 16.4204L7 12.8795V17.875C7 18.4963 7.50367 19 8.125 19H17.875C18.4963 19 19 18.4963 19 17.875V12.8795L14.0983 16.4204C13.7697 16.6576 13.3848 16.7764 13 16.7764ZM18.569 10.8191C18.3616 10.6564 18.1649 10.5034 17.875 10.2845V9.24995C17.875 8.62862 17.3713 8.12495 16.75 8.12495H14.9324C14.8612 8.07339 14.7948 8.02511 14.7205 7.9712C14.3266 7.68362 13.5437 6.99175 13 6.99995C12.4563 6.99175 11.6737 7.68362 11.2795 7.9712C11.2052 8.02511 11.1388 8.07339 11.0676 8.12495H9.25C8.62867 8.12495 8.125 8.62862 8.125 9.24995V10.2845C7.83508 10.5032 7.63844 10.6564 7.43102 10.8191C7.29676 10.9243 7.18818 11.0587 7.11351 11.212C7.03884 11.3654 7.00002 11.5337 7 11.7043V11.9539L9.25 13.5793V9.24995H16.75V13.5793L19 11.9539V11.7043C19 11.3589 18.8411 11.0324 18.569 10.8191Z" fill="#FFAB00"/>
</svg>
