<svg width="26" height="26" viewBox="0 0 26 26" fill="none" xmlns="http://www.w3.org/2000/svg">
<circle cx="13" cy="13" r="12.5" fill="#FFAB00" fill-opacity="0.25" stroke="#FFAB00"/>
<circle cx="12.9997" cy="12.9999" r="8.26471" fill="#FFAB00" fill-opacity="0.25" stroke="#FFAB00"/>
<path d="M18.7727 11.4719C18.8641 11.3992 19 11.4672 19 11.582V16.375C19 16.9961 18.4961 17.5 17.875 17.5H8.125C7.50391 17.5 7 16.9961 7 16.375V11.5844C7 11.4672 7.13359 11.4016 7.22734 11.4742C7.75234 11.882 8.44844 12.4 10.8391 14.1367C11.3336 14.4977 12.168 15.257 13 15.2523C13.8367 15.2594 14.6875 14.4836 15.1633 14.1367C17.5539 12.4 18.2477 11.8797 18.7727 11.4719ZM13 14.5C13.5437 14.5094 14.3266 13.8156 14.7203 13.5297C17.8305 11.2727 18.0672 11.0758 18.7844 10.5133C18.9203 10.4078 19 10.2437 19 10.0703V9.625C19 9.00391 18.4961 8.5 17.875 8.5H8.125C7.50391 8.5 7 9.00391 7 9.625V10.0703C7 10.2437 7.07969 10.4055 7.21562 10.5133C7.93281 11.0734 8.16953 11.2727 11.2797 13.5297C11.6734 13.8156 12.4563 14.5094 13 14.5Z" fill="#FFAB00"/>
</svg>
