<svg width="24" height="24" viewBox="0 0 24 24" fill="none" xmlns="http://www.w3.org/2000/svg">
<path d="M1.5 3C1.5 2.17157 2.17157 1.5 3 1.5L21 1.5C21.8284 1.5 22.5 2.17157 22.5 3L22.5 21C22.5 21.8284 21.8284 22.5 21 22.5L3 22.5C2.17157 22.5 1.5 21.8284 1.5 21L1.5 3ZM-1.31134e-07 21C-5.87108e-08 22.6569 1.34315 24 3 24L21 24C22.6569 24 24 22.6569 24 21L24 3C24 1.34314 22.6569 -9.90363e-07 21 -9.17939e-07L3 -1.31134e-07C1.34314 -5.87108e-08 -9.90363e-07 1.34315 -9.17939e-07 3L-1.31134e-07 21Z" fill="#333344"/>
<path d="M17.1776 8.49995C16.5644 8.48822 16.0625 9.00179 16.0625 9.61511V11.9998H15.8438V7.18152C15.8438 6.5682 15.3418 6.05463 14.7286 6.06636C14.1344 6.07773 13.6563 6.56298 13.6563 7.15992V11.9998H13.4375V6.11511C13.4375 5.50179 12.9356 4.98822 12.3224 4.99995C11.7282 5.01133 11.25 5.49657 11.25 6.09351V11.9998H11.0313V7.20886C11.0313 6.59554 10.5293 6.08197 9.91615 6.0937C9.32194 6.10508 8.84375 6.59032 8.84375 7.18726V13.6402L7.97838 12.4502C7.6231 11.9617 6.93907 11.8536 6.45049 12.2089C5.96199 12.5642 5.85399 13.2483 6.20926 13.7368L9.64366 18.4592C9.76543 18.6267 9.92507 18.7629 10.1095 18.8568C10.294 18.9508 10.4981 18.9998 10.7051 18.9998H16.108C16.717 18.9998 17.2461 18.5807 17.3856 17.9879L18.1104 14.9073C18.2031 14.5132 18.25 14.1097 18.25 13.7049V9.59351C18.25 8.99657 17.7718 8.51133 17.1776 8.49995Z" fill="#6C757D"/>
</svg>
