<svg width="24" height="24" viewBox="0 0 24 24" xmlns="http://www.w3.org/2000/svg">
<path d="M1.5 3C1.5 2.17157 2.17157 1.5 3 1.5L21 1.5C21.8284 1.5 22.5 2.17157 22.5 3L22.5 21C22.5 21.8284 21.8284 22.5 21 22.5L3 22.5C2.17157 22.5 1.5 21.8284 1.5 21L1.5 3ZM-1.31134e-07 21C-5.87108e-08 22.6569 1.34315 24 3 24L21 24C22.6569 24 24 22.6569 24 21L24 3C24 1.34314 22.6569 -9.90363e-07 21 -9.17939e-07L3 -1.31134e-07C1.34314 -5.87108e-08 -9.90363e-07 1.34315 -9.17939e-07 3L-1.31134e-07 21Z" />
<path d="M17.1776 8.50001C16.5644 8.48828 16.0625 9.00185 16.0625 9.61517V11.9998H15.8438V7.18158C15.8438 6.56826 15.3418 6.05469 14.7286 6.06642C14.1344 6.0778 13.6563 6.56304 13.6563 7.15998V11.9998H13.4375V6.11517C13.4375 5.50185 12.9356 4.98828 12.3224 5.00001C11.7282 5.01139 11.25 5.49663 11.25 6.09357V11.9998H11.0313V7.20892C11.0313 6.5956 10.5293 6.08203 9.91615 6.09376C9.32194 6.10514 8.84375 6.59038 8.84375 7.18732V13.6402L7.97838 12.4503C7.6231 11.9617 6.93907 11.8537 6.45049 12.209C5.96199 12.5643 5.85399 13.2483 6.20926 13.7369L9.64366 18.4593C9.76543 18.6267 9.92507 18.763 10.1095 18.8569C10.294 18.9508 10.4981 18.9998 10.7051 18.9998H16.108C16.717 18.9998 17.2461 18.5808 17.3856 17.9879L18.1104 14.9074C18.2031 14.5133 18.25 14.1098 18.25 13.705V9.59357C18.25 8.99663 17.7718 8.51139 17.1776 8.50001Z" />
</svg>
