<svg width="23" height="23" viewBox="0 0 23 23" fill="none" xmlns="http://www.w3.org/2000/svg">
<path d="M11.5 22C17.299 22 22 17.299 22 11.5C22 5.70101 17.299 1 11.5 1C5.70101 1 1 5.70101 1 11.5C1 17.299 5.70101 22 11.5 22Z" stroke="#00BF9C"/>
<path d="M16.8407 16H6.15946C5.86719 16 5.61375 15.9052 5.39847 15.718L9.08324 12.0976C9.1754 12.1626 9.26065 12.2233 9.33752 12.2787C9.61336 12.4783 9.837 12.634 10.0088 12.7455C10.1804 12.8574 10.409 12.9714 10.6945 13.0878C10.98 13.2043 11.246 13.2624 11.4928 13.2624H11.5H11.5072C11.754 13.2624 12.02 13.2043 12.3055 13.0878C12.5908 12.9714 12.8194 12.8574 12.9912 12.7455C13.163 12.634 13.3868 12.4782 13.6625 12.2787C13.7434 12.2212 13.8291 12.1607 13.9175 12.0985L17.6015 15.718C17.3862 15.9052 17.133 16 16.8407 16ZM5.73081 9.83492C6.75533 10.5155 7.58985 11.0759 8.23755 11.518L5 14.6829V9.21951C5.2122 9.45061 5.45595 9.65578 5.73081 9.83492ZM17.2762 9.83491C17.5512 9.65098 17.7924 9.44596 18 9.21951V14.6829L14.7625 11.5192C15.4525 11.0483 16.2904 10.4869 17.2762 9.83491ZM16.8392 6C17.1535 6 17.4257 6.11089 17.6555 6.33257C17.885 6.55452 18 6.82101 18 7.13244C18 7.50519 17.8814 7.86143 17.6448 8.20104C17.4077 8.54066 17.1128 8.83095 16.7598 9.07151C15.586 9.86631 14.7002 10.4664 14.0988 10.874C13.7682 11.0979 13.5224 11.2647 13.3646 11.3718C13.3412 11.3878 13.3047 11.4132 13.2562 11.4472C13.2039 11.4837 13.1377 11.5302 13.0563 11.5877C12.8991 11.6986 12.7685 11.7882 12.6645 11.8567C12.5603 11.925 12.4347 12.0017 12.2872 12.0867C12.1396 12.1717 12.0006 12.2353 11.8701 12.2778C11.7394 12.3202 11.6185 12.3415 11.5073 12.3415H11.5001H11.4929C11.3817 12.3415 11.2608 12.3202 11.1302 12.2778C10.9996 12.2353 10.8605 12.1715 10.713 12.0867C10.5654 12.0017 10.4396 11.9252 10.3357 11.8567C10.2317 11.7882 10.1012 11.6986 9.94399 11.5877C9.86238 11.5302 9.79622 11.4837 9.74394 11.447C9.69541 11.4132 9.65885 11.3877 9.6356 11.3718C9.43309 11.2328 9.18782 11.0654 8.90341 10.8721C8.56974 10.645 8.18145 10.3819 7.73496 10.0801C6.90786 9.52105 6.41211 9.18482 6.24772 9.07151C5.94785 8.87337 5.66488 8.60097 5.39895 8.25417C5.13302 7.90723 5 7.5852 5 7.288C5 6.92006 5.10024 6.61326 5.30105 6.36794C5.50169 6.12273 5.78811 6 6.16065 6H16.8392Z" stroke="#00BF9C"/>
</svg>
