<svg width="26" height="26" viewBox="0 0 26 26" fill="none" xmlns="http://www.w3.org/2000/svg">
<circle cx="13" cy="13" r="12.5" fill="#00875A" fill-opacity="0.25" stroke="#00875A"/>
<path d="M19.7348 11.2172C19.8414 11.1324 20 11.2117 20 11.3457V16.9375C20 17.6621 19.4121 18.25 18.6875 18.25H7.3125C6.58789 18.25 6 17.6621 6 16.9375V11.3484C6 11.2117 6.15586 11.1352 6.26523 11.2199C6.87773 11.6957 7.68984 12.3 10.4789 14.3262C11.0559 14.7473 12.0293 15.6332 13 15.6277C13.9762 15.6359 14.9687 14.7309 15.5238 14.3262C18.3129 12.3 19.1223 11.693 19.7348 11.2172ZM13 14.75C13.6344 14.7609 14.5477 13.9516 15.007 13.618C18.6355 10.9848 18.9117 10.7551 19.7484 10.0988C19.907 9.97578 20 9.78438 20 9.58203V9.0625C20 8.33789 19.4121 7.75 18.6875 7.75H7.3125C6.58789 7.75 6 8.33789 6 9.0625V9.58203C6 9.78438 6.09297 9.97305 6.25156 10.0988C7.08828 10.7523 7.36445 10.9848 10.993 13.618C11.4523 13.9516 12.3656 14.7609 13 14.75Z" fill="#00875A"/>
</svg>
