<svg width="27" height="26" viewBox="0 0 27 26" fill="none" xmlns="http://www.w3.org/2000/svg">
<circle cx="13.5" cy="13" r="12.5" fill="#00875A" fill-opacity="0.25" stroke="#00875A"/>
<path d="M20.2347 11.2172C20.3413 11.1324 20.4999 11.2117 20.4999 11.3457V16.9375C20.4999 17.6621 19.912 18.25 19.1874 18.25H7.81244C7.08783 18.25 6.49994 17.6621 6.49994 16.9375V11.3484C6.49994 11.2117 6.6558 11.1352 6.76517 11.2199C7.37767 11.6957 8.18978 12.3 10.9788 14.3262C11.5558 14.7473 12.5292 15.6332 13.4999 15.6277C14.4761 15.6359 15.4687 14.7309 16.0238 14.3262C18.8128 12.3 19.6222 11.693 20.2347 11.2172ZM13.4999 14.75C14.1343 14.7609 15.0476 13.9516 15.507 13.618C19.1355 10.9848 19.4117 10.7551 20.2484 10.0988C20.407 9.97578 20.4999 9.78437 20.4999 9.58203V9.0625C20.4999 8.33789 19.912 7.75 19.1874 7.75H7.81244C7.08783 7.75 6.49994 8.33789 6.49994 9.0625V9.58203C6.49994 9.78437 6.59291 9.97305 6.7515 10.0988C7.58822 10.7523 7.86439 10.9848 11.4929 13.618C11.9523 13.9516 12.8656 14.7609 13.4999 14.75Z" fill="#00875A"/>
</svg>
