<svg width="28" height="28" viewBox="0 0 28 28" fill="none" xmlns="http://www.w3.org/2000/svg">
<circle cx="14" cy="14" r="13" fill="#D11401" fill-opacity="0.25" stroke="#D11401" stroke-width="2"/>
<path d="M20.7348 12.2172C20.8414 12.1324 21 12.2117 21 12.3457V17.9375C21 18.6621 20.4121 19.25 19.6875 19.25H8.3125C7.58789 19.25 7 18.6621 7 17.9375V12.3484C7 12.2117 7.15586 12.1352 7.26523 12.2199C7.87773 12.6957 8.68984 13.3 11.4789 15.3262C12.0559 15.7473 13.0293 16.6332 14 16.6277C14.9762 16.6359 15.9688 15.7309 16.5238 15.3262C19.3129 13.3 20.1223 12.693 20.7348 12.2172ZM14 15.75C14.6344 15.7609 15.5477 14.9516 16.007 14.618C19.6355 11.9848 19.9117 11.7551 20.7484 11.0988C20.907 10.9758 21 10.7844 21 10.582V10.0625C21 9.33789 20.4121 8.75 19.6875 8.75H8.3125C7.58789 8.75 7 9.33789 7 10.0625V10.582C7 10.7844 7.09297 10.973 7.25156 11.0988C8.08828 11.7523 8.36445 11.9848 11.993 14.618C12.4523 14.9516 13.3656 15.7609 14 15.75Z" fill="#D11401"/>
</svg>
