<svg width="31" height="31" viewBox="0 0 31 31" fill="none" xmlns="http://www.w3.org/2000/svg">
<path d="M14.5841 2.91686C15.121 2.37989 15.9916 2.37989 16.5286 2.91686L28.1959 14.5841C28.7329 15.1211 28.7329 15.9917 28.1959 16.5287L16.5286 28.1959C15.9916 28.7329 15.121 28.7329 14.5841 28.1959L2.91682 16.5287C2.37984 15.9917 2.37984 15.1211 2.91682 14.5841L14.5841 2.91686ZM1.94454 13.6119C0.870602 14.6858 0.870602 16.427 1.94454 17.5009L13.6118 29.1682C14.6857 30.2421 16.427 30.2421 17.5009 29.1682L29.1682 17.5009C30.2421 16.427 30.2421 14.6858 29.1682 13.6119L17.5009 1.94459C16.427 0.870649 14.6857 0.870649 13.6118 1.94459L1.94454 13.6119Z" fill="#333344"/>
<path d="M23.6429 13.7188H17.5357V8.375C17.5357 7.71928 16.928 7.1875 16.1786 7.1875H14.8214C14.072 7.1875 13.4643 7.71928 13.4643 8.375V13.7188H7.35714C6.60775 13.7188 6 14.2505 6 14.9062V16.0938C6 16.7495 6.60775 17.2812 7.35714 17.2812H13.4643V22.625C13.4643 23.2807 14.072 23.8125 14.8214 23.8125H16.1786C16.928 23.8125 17.5357 23.2807 17.5357 22.625V17.2812H23.6429C24.3923 17.2812 25 16.7495 25 16.0938V14.9062C25 14.2505 24.3923 13.7188 23.6429 13.7188Z" fill="#212529"/>
</svg>
