<svg width="29" height="29" viewBox="0 0 29 29" xmlns="http://www.w3.org/2000/svg">
<path d="M13.5841 1.9168C14.121 1.37983 14.9916 1.37983 15.5286 1.9168L27.1959 13.5841C27.7329 14.121 27.7329 14.9916 27.1959 15.5286L15.5286 27.1959C14.9916 27.7328 14.121 27.7328 13.5841 27.1959L1.91682 15.5286C1.37984 14.9916 1.37984 14.121 1.91682 13.5841L13.5841 1.9168ZM0.944544 12.6118C-0.129398 13.6857 -0.129398 15.4269 0.944544 16.5009L12.6118 28.1681C13.6857 29.2421 15.427 29.2421 16.5009 28.1681L28.1682 16.5009C29.2421 15.4269 29.2421 13.6857 28.1682 12.6118L16.5009 0.94453C15.427 -0.129412 13.6857 -0.129412 12.6118 0.94453L0.944544 12.6118Z" />
<path d="M22.6429 12.7188H16.5357V7.375C16.5357 6.71928 15.928 6.1875 15.1786 6.1875H13.8214C13.072 6.1875 12.4643 6.71928 12.4643 7.375V12.7188H6.35714C5.60775 12.7188 5 13.2505 5 13.9062V15.0938C5 15.7495 5.60775 16.2812 6.35714 16.2812H12.4643V21.625C12.4643 22.2807 13.072 22.8125 13.8214 22.8125H15.1786C15.928 22.8125 16.5357 22.2807 16.5357 21.625V16.2812H22.6429C23.3923 16.2812 24 15.7495 24 15.0938V13.9062C24 13.2505 23.3923 12.7188 22.6429 12.7188Z" />
</svg>
