<svg width="26" height="22" viewBox="0 0 26 22" xmlns="http://www.w3.org/2000/svg">
<path d="M0.428589 3.14286C0.428589 1.4071 1.83569 0 3.57145 0H22.4286C24.1643 0 25.5714 1.40711 25.5714 3.14286V18.8571C25.5714 20.5929 24.1643 22 22.4286 22H3.57145C1.83569 22 0.428589 20.5929 0.428589 18.8571V3.14286ZM8.28573 1.57143V20.4286H22.4286C23.2965 20.4286 24 19.725 24 18.8571V3.14286C24 2.27498 23.2965 1.57143 22.4286 1.57143H8.28573ZM6.7143 1.57143H3.57145C2.70357 1.57143 2.00002 2.27498 2.00002 3.14286V18.8571C2.00002 19.725 2.70357 20.4286 3.57145 20.4286H6.7143V1.57143Z" />
</svg>
