<svg width="24" height="24" viewBox="0 0 24 24" xmlns="http://www.w3.org/2000/svg">
<path d="M1.5 3C1.5 2.17157 2.17157 1.5 3 1.5L21 1.5C21.8284 1.5 22.5 2.17157 22.5 3L22.5 21C22.5 21.8284 21.8284 22.5 21 22.5L3 22.5C2.17157 22.5 1.5 21.8284 1.5 21L1.5 3ZM-1.31134e-07 21C-5.87108e-08 22.6569 1.34315 24 3 24L21 24C22.6569 24 24 22.6569 24 21L24 3C24 1.34314 22.6569 -9.90363e-07 21 -9.17939e-07L3 -1.31134e-07C1.34314 -5.87108e-08 -9.90363e-07 1.34315 -9.17939e-07 3L-1.31134e-07 21Z" />
<path d="M11.101 18.9863L9.76662 18.5024C9.62662 18.4531 9.54787 18.2699 9.58725 18.0949L12.5732 5.23791C12.6126 5.06291 12.7591 4.96447 12.8991 5.01369L14.2335 5.49768C14.3735 5.5469 14.4522 5.7301 14.4129 5.9051L11.4269 18.7621C11.3854 18.9371 11.241 19.0383 11.101 18.9863ZM8.60725 15.9184L9.55881 14.6496C9.65943 14.5156 9.65287 14.3024 9.54131 14.1793L7.55943 12L9.54131 9.82072C9.65287 9.69768 9.66162 9.4844 9.55881 9.35041L8.60725 8.08166C8.50881 7.95041 8.34256 7.94221 8.23537 8.06799L5.08318 11.7594C4.97162 11.8879 4.97162 12.1094 5.08318 12.2379L8.23537 15.9321C8.34256 16.0578 8.50881 16.0524 8.60725 15.9184ZM15.7647 15.9348L18.9169 12.2406C19.0285 12.1121 19.0285 11.8906 18.9169 11.7621L15.7647 8.06526C15.6597 7.94221 15.4935 7.94768 15.3929 8.07893L14.4413 9.34768C14.3407 9.48166 14.3472 9.69494 14.4588 9.81799L16.4407 12L14.4588 14.1793C14.3472 14.3024 14.3385 14.5156 14.4413 14.6496L15.3929 15.9184C15.4913 16.0524 15.6576 16.0578 15.7647 15.9348Z" />
</svg>
