<?xml version="1.0" encoding="UTF-8"?>
<svg width="22px" height="22px" viewBox="0 0 22 22" version="1.1" xmlns="http://www.w3.org/2000/svg" xmlns:xlink="http://www.w3.org/1999/xlink">
    <g id="Page-1" stroke="none" stroke-width="1" fill="none" fill-rule="evenodd">
        <g id="start-timer-event">
            <g id="path-1-link" fill="#EDFFFC">
                <circle id="path-1" cx="11" cy="11" r="11"></circle>
            </g>
            <circle id="Oval" stroke="#00BF9C" cx="11" cy="11" r="10.5"></circle>
            <circle id="Oval" stroke="#00BF9C" cx="11" cy="11" r="8"></circle>
            <path d="M11,11 L11,6.5" id="Line-2" stroke="#00BF9C" stroke-linecap="square"></path>
            <path d="M11,11 L14.5,11" id="Line-3" stroke="#00BF9C" stroke-linecap="square"></path>
            <g id="minutes" transform="translate(10.000000, 3.000000)" stroke="#00BF9C" stroke-linecap="square">
                <path d="M1,0 L1,1.5" id="Line-6"></path>
                <path d="M1,14.5 L1,16" id="Line-6"></path>
            </g>
            <g id="minutes" transform="translate(11.000000, 11.000000) rotate(30.000000) translate(-11.000000, -11.000000) translate(10.000000, 3.000000)" stroke="#00BF9C" stroke-linecap="square">
                <path d="M1,0 L1,1.5" id="Line-6"></path>
                <path d="M1,14.5 L1,16" id="Line-6"></path>
            </g>
            <g id="minutes" transform="translate(11.000000, 11.000000) rotate(60.000000) translate(-11.000000, -11.000000) translate(10.000000, 3.000000)" stroke="#00BF9C" stroke-linecap="square">
                <path d="M1,0 L1,1.5" id="Line-6"></path>
                <path d="M1,14.5 L1,16" id="Line-6"></path>
            </g>
            <g id="minutes" transform="translate(11.000000, 11.000000) rotate(90.000000) translate(-11.000000, -11.000000) translate(10.000000, 3.000000)" stroke="#00BF9C" stroke-linecap="square">
                <path d="M1,0 L1,1.5" id="Line-6"></path>
                <path d="M1,14.5 L1,16" id="Line-6"></path>
            </g>
            <g id="minutes" transform="translate(11.000000, 11.000000) rotate(120.000000) translate(-11.000000, -11.000000) translate(10.000000, 3.000000)" stroke="#00BF9C" stroke-linecap="square">
                <path d="M1,0 L1,1.5" id="Line-6"></path>
                <path d="M1,14.5 L1,16" id="Line-6"></path>
            </g>
            <g id="minutes" transform="translate(11.000000, 11.000000) rotate(150.000000) translate(-11.000000, -11.000000) translate(10.000000, 3.000000)" stroke="#00BF9C" stroke-linecap="square">
                <path d="M1,0 L1,1.5" id="Line-6"></path>
                <path d="M1,14.5 L1,16" id="Line-6"></path>
            </g>
        </g>
    </g>
</svg>
