<svg width="24" height="24" viewBox="0 0 24 24" xmlns="http://www.w3.org/2000/svg">
<path d="M1.5 3C1.5 2.17157 2.17157 1.5 3 1.5L21 1.5C21.8284 1.5 22.5 2.17157 22.5 3L22.5 21C22.5 21.8284 21.8284 22.5 21 22.5L3 22.5C2.17157 22.5 1.5 21.8284 1.5 21L1.5 3ZM-1.31134e-07 21C-5.87108e-08 22.6569 1.34315 24 3 24L21 24C22.6569 24 24 22.6569 24 21L24 3C24 1.34314 22.6569 -9.90363e-07 21 -9.17939e-07L3 -1.31134e-07C1.34314 -5.87108e-08 -9.90363e-07 1.34315 -9.17939e-07 3L-1.31134e-07 21Z" />
<path d="M20.6429 9.71875H14.5357V4.375C14.5357 3.71928 13.928 3.1875 13.1786 3.1875H11.8214C11.072 3.1875 10.4643 3.71928 10.4643 4.375V9.71875H4.35714C3.60775 9.71875 3 10.2505 3 10.9062V12.0938C3 12.7495 3.60775 13.2812 4.35714 13.2812H10.4643V18.625C10.4643 19.2807 11.072 19.8125 11.8214 19.8125H13.1786C13.928 19.8125 14.5357 19.2807 14.5357 18.625V13.2812H20.6429C21.3923 13.2812 22 12.7495 22 12.0938V10.9062C22 10.2505 21.3923 9.71875 20.6429 9.71875Z" />
</svg>
