<svg width="26" height="26" viewBox="0 0 26 26" fill="none" xmlns="http://www.w3.org/2000/svg">
<circle cx="13" cy="13" r="12.5" fill="#00875A" fill-opacity="0.25" stroke="#00875A"/>
<path d="M13 6.21875C9.25391 6.21875 6.21875 9.25391 6.21875 13C6.21875 16.7461 9.25391 19.7812 13 19.7812C16.7461 19.7812 19.7812 16.7461 19.7812 13C19.7812 9.25391 16.7461 6.21875 13 6.21875ZM15.529 14.7773L14.9821 15.4609C14.9463 15.5058 14.9019 15.5432 14.8516 15.5709C14.8012 15.5986 14.7459 15.6161 14.6888 15.6225C14.6317 15.6288 14.5739 15.6239 14.5187 15.6079C14.4636 15.5919 14.4121 15.5652 14.3672 15.5293L12.5352 14.1698C12.4071 14.0673 12.3038 13.9373 12.2328 13.7895C12.1618 13.6417 12.125 13.4798 12.125 13.3158V9.0625C12.125 8.94647 12.1711 8.83519 12.2531 8.75314C12.3352 8.67109 12.4465 8.625 12.5625 8.625H13.4375C13.5535 8.625 13.6648 8.67109 13.7469 8.75314C13.8289 8.83519 13.875 8.94647 13.875 9.0625V13L15.4609 14.1621C15.5058 14.198 15.5432 14.2424 15.5709 14.2928C15.5986 14.3431 15.6162 14.3985 15.6225 14.4556C15.6288 14.5128 15.6238 14.5706 15.6078 14.6258C15.5917 14.681 15.565 14.7325 15.529 14.7773Z" fill="#00875A"/>
</svg>
