<svg width="27" height="26" viewBox="0 0 27 26" fill="none" xmlns="http://www.w3.org/2000/svg">
<circle cx="13.5" cy="13" r="12.5" fill="#00875A" fill-opacity="0.25" stroke="#00875A"/>
<path d="M13.4999 6.21875C9.75385 6.21875 6.71869 9.25391 6.71869 13C6.71869 16.7461 9.75385 19.7812 13.4999 19.7812C17.246 19.7812 20.2812 16.7461 20.2812 13C20.2812 9.25391 17.246 6.21875 13.4999 6.21875ZM16.029 14.7773L15.4821 15.4609C15.4462 15.5058 15.4018 15.5432 15.3515 15.5709C15.3012 15.5986 15.2459 15.6161 15.1888 15.6225C15.1317 15.6288 15.0739 15.6239 15.0187 15.6079C14.9635 15.5919 14.912 15.5652 14.8671 15.5293L13.0351 14.1698C12.9071 14.0673 12.8038 13.9373 12.7328 13.7895C12.6618 13.6417 12.6249 13.4798 12.6249 13.3158V9.0625C12.6249 8.94647 12.671 8.83519 12.7531 8.75314C12.8351 8.67109 12.9464 8.625 13.0624 8.625H13.9374C14.0535 8.625 14.1648 8.67109 14.2468 8.75314C14.3288 8.83519 14.3749 8.94647 14.3749 9.0625V13L15.9609 14.1621C16.0058 14.198 16.0431 14.2424 16.0709 14.2928C16.0986 14.3431 16.1161 14.3985 16.1224 14.4556C16.1287 14.5128 16.1237 14.5706 16.1077 14.6258C16.0917 14.681 16.0649 14.7325 16.029 14.7773Z" fill="#00875A"/>
</svg>
