<?xml version="1.0" encoding="UTF-8"?>
<svg width="14px" height="14px" viewBox="0 0 14 14" version="1.1" xmlns="http://www.w3.org/2000/svg" xmlns:xlink="http://www.w3.org/1999/xlink">
    <g id="book" stroke="none" stroke-width="1" fill="none" fill-rule="evenodd">
        <g id="book-solid" transform="translate(1.000000, 0.000000)" fill="#788793" fill-rule="nonzero">
            <path d="M12,9.84375 L12,0.65625 C12,0.292578125 11.7133929,0 11.3571429,0 L2.57142857,0 C1.15178571,0 0,1.17578125 0,2.625 L0,11.375 C0,12.8242188 1.15178571,14 2.57142857,14 L11.3571429,14 C11.7133929,14 12,13.7074219 12,13.34375 L12,12.90625 C12,12.7011719 11.90625,12.5152344 11.7616071,12.3949219 C11.6491071,11.9738281 11.6491071,10.7734375 11.7616071,10.3523438 C11.90625,10.2347656 12,10.0488281 12,9.84375 Z M3.42857143,3.6640625 C3.42857143,3.57382812 3.50089286,3.5 3.58928571,3.5 L9.26785714,3.5 C9.35625,3.5 9.42857143,3.57382812 9.42857143,3.6640625 L9.42857143,4.2109375 C9.42857143,4.30117188 9.35625,4.375 9.26785714,4.375 L3.58928571,4.375 C3.50089286,4.375 3.42857143,4.30117188 3.42857143,4.2109375 L3.42857143,3.6640625 Z M3.42857143,5.4140625 C3.42857143,5.32382813 3.50089286,5.25 3.58928571,5.25 L9.26785714,5.25 C9.35625,5.25 9.42857143,5.32382813 9.42857143,5.4140625 L9.42857143,5.9609375 C9.42857143,6.05117188 9.35625,6.125 9.26785714,6.125 L3.58928571,6.125 C3.50089286,6.125 3.42857143,6.05117188 3.42857143,5.9609375 L3.42857143,5.4140625 Z M10.2160714,12.25 L2.57142857,12.25 C2.09732143,12.25 1.71428571,11.8589844 1.71428571,11.375 C1.71428571,10.89375 2.1,10.5 2.57142857,10.5 L10.2160714,10.5 C10.1651786,10.9675781 10.1651786,11.7824219 10.2160714,12.25 Z" id="Shape"></path>
        </g>
    </g>
</svg>
