<svg width="13" height="14" viewBox="0 0 13 14" fill="none" xmlns="http://www.w3.org/2000/svg">
<path fill-rule="evenodd" clip-rule="evenodd" d="M10.7487 3.9593C10.1464 5.14886 9.54416 6.33842 8.94192 7.52825C8.20479 6.59357 7.46738 5.65889 6.72997 4.7242C5.99269 3.78968 5.25542 2.85516 4.51841 1.92064C3.84853 3.85043 3.17892 5.78021 2.50932 7.71C1.83963 9.64 1.16995 11.57 0.5 13.5C1.24792 12.563 1.9961 11.6259 2.74428 10.6889C3.49786 9.74513 4.25144 8.80134 5.00474 7.85756C5.80768 8.75269 6.61062 9.6481 7.41356 10.5435C8.1595 11.3753 8.90544 12.2072 9.65138 13.0388C10.2074 10.5922 10.7631 8.14594 11.3188 5.69942C11.7125 3.9665 12.1061 2.23343 12.5 0.5C11.9163 1.65327 11.3325 2.80629 10.7487 3.9593ZM8.39062 8.3954C8.62891 8.69756 8.86723 8.99974 9.10557 9.30195C9.27811 8.91734 9.45092 8.533 9.62372 8.14865C9.79924 7.75827 9.97476 7.36789 10.15 6.97723C9.98454 7.6418 9.81934 8.30663 9.65413 8.97146C9.48609 9.64773 9.31804 10.324 9.14972 11L4.88145 5.97908C4.59078 6.42864 4.30011 6.87793 4.00944 7.32723C3.72297 7.77003 3.4365 8.21283 3.15002 8.6559C3.44568 7.87986 3.74134 7.10356 4.037 6.32725C4.33249 5.55141 4.62797 4.77557 4.92345 4C6.0795 5.46493 7.23482 6.92986 8.39062 8.3954Z" fill="#212529"/>
</svg>
