<svg width="27" height="26" viewBox="0 0 27 26" fill="none" xmlns="http://www.w3.org/2000/svg">
    <path id="Union" fill-rule="evenodd" clip-rule="evenodd" d="M11.9667 1.13043C11.9667 0.506113 12.4728 0 13.0971 0C13.7215 0 14.2276 0.506113 14.2276 1.13043V2.853C14.2276 3.47732 13.7215 3.98344 13.0971 3.98344C12.4728 3.98344 11.9667 3.47732 11.9667 2.853V1.13043ZM0.125 14.6969C1.95523 11.8618 7.12293 6.19169 13.1519 6.19169C19.1809 6.19169 24.3127 11.8618 26.125 14.6969V15.3967C25.802 15.9529 25.0139 17.1037 24.5639 17.6037C24.0795 18.142 23.2182 19.0033 22.8414 19.3263C23.4873 20.6361 24.8331 23.3528 25.0484 23.7403C25.3175 24.2248 24.8869 25.5706 23.5411 25.0323C22.4645 24.6016 19.4321 23.4532 18.0505 22.9329C17.1174 23.3635 14.8314 24.2033 13.1519 24.1172C11.0525 24.0095 8.8455 23.7942 5.13121 20.8873C2.15978 18.5619 0.555642 16.2579 0.125 15.3967V14.6969ZM13.1517 20.3494C16.0057 20.3494 18.3194 18.0357 18.3194 15.1817C18.3194 12.3276 16.0057 10.014 13.1517 10.014C10.2977 10.014 7.984 12.3276 7.984 15.1817C7.984 18.0357 10.2977 20.3494 13.1517 20.3494ZM22.5709 3.84806C22.1339 3.40224 21.4182 3.39514 20.9723 3.8322L19.7423 5.03809C19.2965 5.47515 19.2894 6.19087 19.7264 6.63669C20.1635 7.08251 20.8792 7.08961 21.325 6.65255L22.5551 5.44666C23.0009 5.0096 23.008 4.29388 22.5709 3.84806ZM5.42274 3.8056C4.97692 3.36854 4.26121 3.37564 3.82415 3.82146C3.38709 4.26728 3.39419 4.983 3.84001 5.42006L5.07007 6.62595C5.51589 7.06301 6.23161 7.05591 6.66867 6.61009C7.10573 6.16427 7.09863 5.44855 6.65281 5.01149L5.42274 3.8056ZM13.1513 13.1339C13.1513 14.2636 12.2354 15.1794 11.1057 15.1794C10.6291 15.1794 10.1905 15.0164 9.84278 14.7431C9.82415 14.8858 9.81455 15.0314 9.81455 15.1792C9.81455 17.0224 11.3088 18.5167 13.152 18.5167C14.9953 18.5167 16.4895 17.0224 16.4895 15.1792C16.4895 13.3359 14.9953 11.8417 13.152 11.8417C13.0037 11.8417 12.8576 11.8514 12.7143 11.8701C12.988 12.218 13.1513 12.6569 13.1513 13.1339Z" fill="#1572C2"/>
</svg>