<svg width="18" height="18" viewBox="0 0 18 18" fill="none" xmlns="http://www.w3.org/2000/svg">
    <path fill-rule="evenodd" clip-rule="evenodd" d="M0 17C0 16.4477 0.366312 16 0.818182 16H17.1818C17.6337 16 18 16.4477 18 17C18 17.5523 17.6337 18 17.1818 18H0.818182C0.366312 18 0 17.5523 0 17Z"/>
    <path fill-rule="evenodd" clip-rule="evenodd" d="M0 9C0 8.44772 0.366312 8 0.818182 8H17.1818C17.6337 8 18 8.44772 18 9C18 9.55228 17.6337 10 17.1818 10H0.818182C0.366312 10 0 9.55228 0 9Z"/>
    <path fill-rule="evenodd" clip-rule="evenodd" d="M0 1C0 0.447715 0.366312 0 0.818182 0H17.1818C17.6337 0 18 0.447715 18 1C18 1.55228 17.6337 2 17.1818 2H0.818182C0.366312 2 0 1.55228 0 1Z"/>
</svg>
