<!-- Generated by IcoMoon.io -->
<svg version="1.1" xmlns="http://www.w3.org/2000/svg" width="32" height="32" viewBox="0 0 32 32">
<title>intermediate-event-catch-message</title>
<path d="M15.973 1.552c-7.036-0.144-13.601 5.64-14.333 12.644-0.773 5.923 2.479 12.171 7.904 14.753 5.123 2.574 11.766 1.799 16.015-2.108 4.291-3.763 6.083-10.166 4.098-15.559-1.825-5.316-6.929-9.364-12.575-9.688-0.369-0.027-0.739-0.042-1.109-0.042zM15.809 3.111c6.451-0.243 12.515 5.137 13.020 11.579 0.621 5.681-2.954 11.567-8.394 13.439-5.288 1.955-11.779 0.054-14.973-4.649-3.278-4.592-3.148-11.369 0.572-15.677 2.381-2.867 6.033-4.678 9.774-4.692zM16.065 4.516c-5.968-0.19-11.459 5.050-11.566 11.018-0.263 5.393 3.734 10.686 9.074 11.713 4.948 1.083 10.476-1.459 12.683-6.061 2.283-4.494 1.262-10.476-2.633-13.759-2.064-1.828-4.794-2.909-7.557-2.912zM15.995 6.048c5.261-0.139 10.053 4.595 9.968 9.862 0.093 4.868-3.825 9.495-8.713 9.986-4.589 0.603-9.428-2.34-10.748-6.83-1.383-4.278 0.434-9.43 4.42-11.632 1.528-0.9 3.298-1.389 5.073-1.386zM9.443 10.999c0 3.334 0 6.668 0 10.002 4.371 0 8.742 0 13.113 0 0-3.334 0-6.668 0-10.002-4.371 0-8.742 0-13.113 0zM12.356 12.562c2.429 0 4.857 0 7.286 0-1.291 0.794-2.581 2.537-3.872 2.728-1.138-0.909-2.276-1.819-3.415-2.728zM20.996 13.482c0 1.985 0 3.971 0 5.956-3.331 0-6.661 0-9.992 0 0-1.985 0-3.971 0-5.956 1.665 1.331 3.33 2.661 4.995 3.991 1.666-1.331 3.332-2.661 4.998-3.992z"></path>
</svg>
