<svg width="173" height="122" viewBox="0 0 173 122" fill="none" xmlns="http://www.w3.org/2000/svg">
<path d="M19.5851 57.7209C18.7846 60.9364 20.7424 64.1921 23.958 64.9926L76.3586 78.0376C79.5742 78.8381 82.8299 76.8803 83.6304 73.6647C84.4309 70.4492 82.4731 67.1935 79.2575 66.393L32.6792 54.7974L44.2747 8.21909C45.0752 5.00352 43.1174 1.74786 39.9019 0.94735C36.6863 0.146845 33.4306 2.10464 32.6301 5.3202L19.5851 57.7209ZM0.66243 58.0568C13.6081 83.2705 28.3055 100.096 43.8523 110.155C59.4835 120.268 75.6781 123.341 91.0765 121.492C121.52 117.836 148.046 95.1288 162.032 71.9001C169.041 60.2595 173.341 47.781 172.979 36.7524C172.795 31.1671 171.404 25.7785 168.367 21.1433C165.3 16.4632 160.783 12.9027 154.963 10.6871C143.593 6.35893 127.376 7.17377 106.065 13.7532C84.5633 20.3916 56.9935 33.1747 22.3153 54.0284L28.4995 64.3122C62.7172 43.7354 89.3666 31.4676 109.605 25.2192C130.035 18.9118 143.081 19.004 150.694 21.902C154.365 23.2996 156.769 25.3394 158.329 27.7199C159.918 30.1453 160.858 33.2776 160.985 37.1467C161.244 45.0268 158.085 55.1904 151.751 65.7104C139.052 86.8026 115.362 106.489 89.6456 109.578C76.9641 111.101 63.5928 108.634 50.3708 100.08C37.0645 91.4704 23.6214 76.5004 11.3376 52.5758L0.66243 58.0568Z" fill="black"/>
</svg>
