<svg width="16" height="14" viewBox="0 0 16 14" fill="none" xmlns="http://www.w3.org/2000/svg">
    <path d="M11.9503 12.2449C11.1638 13.0499 10.2389 13.6226 9.25254 13.9653V11.8009C9.7274 11.5586 10.1775 11.2433 10.5722 10.8378C12.5439 8.81641 12.5439 5.5298 10.5722 3.50938C8.6006 1.492 5.39532 1.492 3.4207 3.50938C1.45103 5.53183 1.45795 8.82858 3.42762 10.85C3.43257 10.8561 3.4484 10.8662 3.4484 10.8632H3.45038L4.94321 9.43809L4.94321 14H0.491421L2.07329 12.2764C2.07329 12.2764 2.06241 12.2642 2.0535 12.2571C-0.679894 9.45711 -0.686813 4.90228 2.04658 2.10228C4.78394 -0.700761 9.21396 -0.700761 11.9503 2.10228C14.6817 4.90228 14.6847 9.44494 11.9503 12.2449Z"
          fill="#111111"
    />
</svg>
