<svg width="17" height="16" viewBox="0 0 17 16" fill="none" xmlns="http://www.w3.org/2000/svg">
<path d="M10.3284 0.721802C10.461 0.721802 10.5881 0.77448 10.6819 0.868248L15.6317 5.818C15.8269 6.01326 15.8269 6.32984 15.6317 6.5251C15.1513 7.0055 14.5597 7.11349 14.1291 7.11349C13.9517 7.11349 13.7936 7.09548 13.6683 7.07423L10.5348 10.2078C10.5417 10.2357 10.5488 10.2652 10.5559 10.2962C10.6098 10.5298 10.6703 10.8554 10.6947 11.2206C10.7415 11.9231 10.663 12.908 9.97481 13.5962C9.77955 13.7914 9.46296 13.7914 9.2677 13.5962L6.43928 10.7677L3.2573 13.9497C3.06203 14.145 2.03835 14.8521 1.84308 14.6568C1.64782 14.4616 2.35493 13.4379 2.55019 13.2426L5.73217 10.0606L2.90374 7.23221C2.70848 7.03695 2.70848 6.72036 2.90374 6.5251C3.59191 5.83693 4.57677 5.7584 5.27929 5.80524C5.64448 5.82959 5.97016 5.8901 6.20368 5.94399C6.23473 5.95116 6.26426 5.95823 6.29215 5.96512L9.42568 2.83159C9.40444 2.70635 9.38642 2.54824 9.38642 2.37085C9.38642 1.94022 9.49442 1.34864 9.97481 0.868248C10.0686 0.77448 10.1958 0.721802 10.3284 0.721802ZM10.45 2.83413L10.4493 2.83181L10.45 2.83413ZM10.4493 2.83181L10.45 2.83413C10.5086 3.01308 10.4616 3.20988 10.3284 3.34312L6.79283 6.87866C6.65903 7.01245 6.46118 7.05925 6.28164 6.9996L6.27962 6.99895L6.2665 6.9948C6.25402 6.99091 6.23426 6.9849 6.20796 6.97734C6.1553 6.96221 6.0769 6.94102 5.97882 6.91839C5.78144 6.87284 5.5105 6.82287 5.21277 6.80302C4.791 6.77491 4.37709 6.8108 4.03811 6.95237L9.54755 12.4618C9.68911 12.1228 9.72501 11.7089 9.69689 11.2871C9.67704 10.9894 9.62707 10.7185 9.58153 10.5211C9.55889 10.423 9.5377 10.3446 9.52257 10.2919C9.51501 10.2657 9.509 10.2459 9.50511 10.2334L9.50096 10.2203L9.50047 10.2188C9.44071 10.0392 9.4874 9.84094 9.62126 9.70708L13.1568 6.17155C13.2905 6.03781 13.4883 5.99099 13.6678 6.05053C13.6713 6.05161 13.6786 6.05373 13.6889 6.05653C13.7094 6.06214 13.7424 6.07045 13.7852 6.07901C13.8717 6.09631 13.9927 6.11349 14.1291 6.11349C14.2426 6.11349 14.3588 6.1019 14.472 6.07253L10.4274 2.02792C10.398 2.14114 10.3864 2.25733 10.3864 2.37085C10.3864 2.50717 10.4036 2.6282 10.4209 2.71473C10.4295 2.7575 10.4378 2.79047 10.4434 2.81105C10.4462 2.82131 10.4482 2.82828 10.4493 2.83181Z" fill="#5F666D"/>
</svg>
