<svg width="17" height="16" viewBox="0 0 17 16" fill="none" xmlns="http://www.w3.org/2000/svg">
<path d="M10.3284 0.721802C10.461 0.721802 10.5881 0.77448 10.6819 0.868248L15.6317 5.818C15.8269 6.01326 15.8269 6.32984 15.6317 6.5251C15.1513 7.0055 14.5597 7.11349 14.1291 7.11349C13.9517 7.11349 13.7936 7.09548 13.6683 7.07423L10.5348 10.2078C10.5417 10.2357 10.5488 10.2652 10.5559 10.2962C10.6098 10.5298 10.6703 10.8554 10.6947 11.2206C10.7415 11.9231 10.663 12.908 9.97481 13.5962C9.77955 13.7914 9.46296 13.7914 9.2677 13.5962L6.43928 10.7677L3.2573 13.9497C3.06203 14.145 2.03835 14.8521 1.84308 14.6568C1.64782 14.4616 2.35493 13.4379 2.55019 13.2426L5.73217 10.0606L2.90374 7.23221C2.70848 7.03695 2.70848 6.72036 2.90374 6.5251C3.59191 5.83693 4.57677 5.7584 5.27929 5.80524C5.64448 5.82959 5.97016 5.8901 6.20368 5.94399C6.23473 5.95116 6.26426 5.95823 6.29215 5.96512L9.42568 2.83159C9.40444 2.70635 9.38642 2.54824 9.38642 2.37085C9.38642 1.94022 9.49442 1.34864 9.97481 0.868248C10.0686 0.77448 10.1958 0.721802 10.3284 0.721802Z" fill="#5F666D"/>
</svg>
