<svg width="13" height="15" viewBox="0 0 13 15" fill="none" xmlns="http://www.w3.org/2000/svg">
<path d="M6.5 7.5C8.55156 7.5 10.2143 5.82129 10.2143 3.75C10.2143 1.67871 8.55156 0 6.5 0C4.44844 0 2.78571 1.67871 2.78571 3.75C2.78571 5.82129 4.44844 7.5 6.5 7.5ZM9.1 8.4375H8.6154C7.9712 8.73633 7.25446 8.90625 6.5 8.90625C5.74554 8.90625 5.0317 8.73633 4.3846 8.4375H3.9C1.74687 8.4375 0 10.2012 0 12.375V13.5938C0 14.3701 0.623884 15 1.39286 15H11.6071C12.3761 15 13 14.3701 13 13.5938V12.375C13 10.2012 11.2531 8.4375 9.1 8.4375Z" fill="#788793"/>
</svg>
