<svg width="16" height="17" viewBox="0 0 16 17" xmlns="http://www.w3.org/2000/svg">
    <path d="M11 0.313721H3C1.89543 0.313721 1 1.20915 1 2.31372V14.3137C1 15.4183 1.89543 16.3137 3 16.3137H11C12.1046 16.3137 13 15.4183 13 14.3137C14.1046 14.3137 15 13.4183 15 12.3137V4.31372C15 3.20915 14.1046 2.31372 13 2.31372C13 1.20915 12.1046 0.313721 11 0.313721ZM13 3.31372C13.5523 3.31372 14 3.76144 14 4.31372V12.3137C14 12.866 13.5523 13.3137 13 13.3137V3.31372ZM2 2.31372C2 1.76144 2.44772 1.31372 3 1.31372H11C11.5523 1.31372 12 1.76144 12 2.31372V14.3137C12 14.866 11.5523 15.3137 11 15.3137H3C2.44772 15.3137 2 14.866 2 14.3137V2.31372Z" />
</svg>
