<svg width="26" height="26" viewBox="0 0 26 26" fill="none" xmlns="http://www.w3.org/2000/svg">
<circle cx="13" cy="13" r="12.5" fill="#FFAB00" fill-opacity="0.25" stroke="#FFAB00"/>
<circle cx="12.9997" cy="12.9999" r="8.26471" fill="#FFAB00" fill-opacity="0.25" stroke="#FFAB00"/>
<path d="M13.8333 10.6562V8H8.625C8.27865 8 8 8.20898 8 8.46875V17.5312C8 17.791 8.27865 18 8.625 18H17.375C17.7214 18 18 17.791 18 17.5312V11.125H14.4583C14.1146 11.125 13.8333 10.9141 13.8333 10.6562ZM15.5 15.2656C15.5 15.3945 15.3594 15.5 15.1875 15.5H10.8125C10.6406 15.5 10.5 15.3945 10.5 15.2656V15.1094C10.5 14.9805 10.6406 14.875 10.8125 14.875H15.1875C15.3594 14.875 15.5 14.9805 15.5 15.1094V15.2656ZM15.5 14.0156C15.5 14.1445 15.3594 14.25 15.1875 14.25H10.8125C10.6406 14.25 10.5 14.1445 10.5 14.0156V13.8594C10.5 13.7305 10.6406 13.625 10.8125 13.625H15.1875C15.3594 13.625 15.5 13.7305 15.5 13.8594V14.0156ZM15.5 12.6094V12.7656C15.5 12.8945 15.3594 13 15.1875 13H10.8125C10.6406 13 10.5 12.8945 10.5 12.7656V12.6094C10.5 12.4805 10.6406 12.375 10.8125 12.375H15.1875C15.3594 12.375 15.5 12.4805 15.5 12.6094ZM18 10.3809V10.5H14.6667V8H14.8255C14.9922 8 15.151 8.04883 15.2682 8.13672L17.8177 10.0508C17.9349 10.1387 18 10.2578 18 10.3809Z" fill="#FFAB00"/>
</svg>
