<svg width="16" height="17" viewBox="0 0 16 17" xmlns="http://www.w3.org/2000/svg">
<path d="M5 2.31372C5 2.03758 5.22386 1.81372 5.5 1.81372C6.36189 1.81372 7.07254 2.10072 7.56057 2.3796C7.73384 2.47861 7.88124 2.57782 8 2.66526C8.11876 2.57782 8.26616 2.47861 8.43943 2.3796C8.92746 2.10072 9.63811 1.81372 10.5 1.81372C10.7761 1.81372 11 2.03758 11 2.31372C11 2.58986 10.7761 2.81372 10.5 2.81372C9.86189 2.81372 9.32254 3.02672 8.93557 3.24784C8.74814 3.35495 8.60054 3.46169 8.5 3.54156V7.81372H9C9.27614 7.81372 9.5 8.03758 9.5 8.31372C9.5 8.58986 9.27614 8.81372 9 8.81372H8.5V13.0859C8.60054 13.1658 8.74814 13.2725 8.93557 13.3796C9.32254 13.6007 9.86189 13.8137 10.5 13.8137C10.7761 13.8137 11 14.0376 11 14.3137C11 14.5899 10.7761 14.8137 10.5 14.8137C9.63811 14.8137 8.92746 14.5267 8.43943 14.2478C8.26616 14.1488 8.11876 14.0496 8 13.9622C7.88124 14.0496 7.73384 14.1488 7.56057 14.2478C7.07254 14.5267 6.36189 14.8137 5.5 14.8137C5.22386 14.8137 5 14.5899 5 14.3137C5 14.0376 5.22386 13.8137 5.5 13.8137C6.13811 13.8137 6.67746 13.6007 7.06443 13.3796C7.25186 13.2725 7.39946 13.1658 7.5 13.0859V8.81372H7C6.72386 8.81372 6.5 8.58986 6.5 8.31372C6.5 8.03758 6.72386 7.81372 7 7.81372H7.5V3.54156C7.39946 3.46169 7.25186 3.35495 7.06443 3.24784C6.67746 3.02672 6.13811 2.81372 5.5 2.81372C5.22386 2.81372 5 2.58986 5 2.31372ZM8.35219 3.66864C8.35196 3.66885 8.35197 3.66884 8.35222 3.66861ZM7.64781 12.9588C7.64804 12.9586 7.64803 12.9586 7.64778 12.9588L7.64781 12.9588Z" />
</svg>
